<svg xmlns="http://www.w3.org/2000/svg" xml:space="preserve" viewBox="0 0 200 200">
  <path fill="#ffffff" d="M0 0h200v200H0z"/>
  <path fill="#ea9f05" d="M148.7 146.3c-1.8-.6-3.5-2.2-5.1-5l-2.6-4-1.7-2.4h1.7c4.7 0 8.6-2.5 10.7-6.8a8 8 0 0 0 1-4.3 13 13 0 0 0-1.9-8.1 28.6 28.6 0 0 0-6.3-8.5l-1.9-1.7 1.5.4c2 .6 6.9 2.9 9.5 4.5a29 29 0 0 1 7.7 7.4c5 7 4.4 16.8-1.3 23.6a16.5 16.5 0 0 1-6.5 4.7c-1.4.4-3.8.5-4.8.2zm-98.7-.8c-3.6-.5-7-2-9.4-4.5-3.2-3.2-4.4-6.7-4.1-12.3.2-6.7 3-12 7.9-15.4 2.4-1.7 4.5-2.8 4.6-2.5 0 .1 0 .7-.2 1.2-.5 1.7-.6 7-.2 8.6.6 2.7 2 5.1 4 7.1 3.2 3 7.3 4.5 12.3 4.5 1.4 0 2.4.1 2.4.2-1 2.1-3.1 6-4 7.3-1.5 2-2.3 2.8-4.3 4a13.4 13.4 0 0 1-9 1.8zM93 97a177 177 0 0 0-29.7-17.3 72 72 0 0 0-27-7c-5.3 0-8.2.9-11 3.5-1.5 1.4-1.5 1.4-2.3-2-.5-1.8-.6-3.2-.6-6 0-3.4 0-3.8.5-4.8 1.2-2.3 3.4-3.4 7.1-3.8 8.3-.8 21.2 4.3 36.1 14.1 12 7.9 22 16.3 28.4 24 .8.8.2.6-1.5-.7zm14.4.4c0-1.2 7-9.8 12.6-15.5 8.2-8.3 17-14.6 27.2-19.8 10-5 18.4-7 23.4-5.9 5.4 1.3 7.7 4.4 7.7 10.4 0 2.3-.5 5.9-1.1 7.2l-.4 1-1.1-1a17 17 0 0 0-6.5-3c-2.6-.7-9.1-.6-13 0a85 85 0 0 0-26.2 9.7c-4.1 2.3-10.7 6.8-13.3 9a92.6 92.6 0 0 0-9 8.4c-.1 0-.3-.2-.3-.5z"/>
  <path fill="#d23a59" d="M36.8 79.3a9.6 9.6 0 0 0-8.9 7.6c-.5 4.2 1.5 8.5 4.6 11.3 3.5 3.2 8.2 5.2 13 5.4 2.6 0 5.3-.2 7.9-.7A95 95 0 0 1 94 102c1 .2 2.1-.4 2.1-1.5 0-1.6-1.3-3-2.7-3.7-1.5-.5-2.7-1.4-4-2-6.6-3.2-13.5-5.8-20.3-8.4-9.5-3.3-19.2-6.7-29.3-7.1h-3zm82 22-6.2.4c-1.8.2-4 .3-5.3 1.8-1 1.3-.4 3 .5 4.2 12 6.3 21.7 16 30 26.5.5 1 1.7 1.6 2.8 1l2.6-.1c5.8-1 10.4-6.6 10-12.5-.2-5.2-3-10-6.6-13.7-1.4-1.6-3-3.1-4.6-4.4a75.6 75.6 0 0 0-23.3-3.2z"/>
  <path fill="#aba707" d="M67.9 159.6c2.8-13.1 6.4-27 15.5-37.3 3.5-3 8.6-8.7 12.4-8.5 1.3 6.6-1.4 12.8-3.8 18.9a55.3 55.3 0 0 1-23.8 27zm81-12.8c-4.5-1.2-8.3-9.5-9-11.1 3.3 5.2 7.6 14.3 15.3 9.6 10.4-5.6 12.6-21.3 4.4-29.7-2.8-5.3-14.8-8.8-16.2-10.4 10.2 3.1 21.3 10.8 21.5 22.5.9 8.8-6.2 20.3-16 19.1zM48 145.6c-8.2-1.5-13.3-10.3-12-18.3a20 20 0 0 1 13.3-17.2C44.1 113 39 117 37.4 123c-2.4 7.2-1 16.7 6.5 20.5 6.7 4.2 16.6 2.2 20.2-5 1.5-3.2 5.1-9 2-2.7-2.6 6.2-8.8 11.3-15.8 10H49l-1-.2zm44.6-50.2A151.4 151.4 0 0 0 48.7 64c-7.4-3-16.4-6.8-24-2.7-4.1 3.6-2.8 12.2-.4 15.7 6.5-6.6 16.7-4.2 24.7-2.4 15.2 4.3 29.2 12 42 21.2-15.8-9.9-32.3-20.3-51.3-22.5-5.5-.7-11.7 0-15.7 4.4-2.6-4.1-4.5-14 1.4-17.4 9.5-3.4 19.5 1.4 28 5.5 15 8 29.3 18.2 40.8 30.9 2.5 3-.6.1-1.6-1.2zm14.5 2c3-7 9.1-12 14.2-17.5A92 92 0 0 1 163 55.8c6.9-2 16.3 1.6 15.7 10 0 4.1-.5 13-5.7 6.7-8.7-3.7-18.6-1.5-27.3 1.3a96.9 96.9 0 0 0-36.4 22.7 87.8 87.8 0 0 1 42.9-25c8-1.7 18-3 24.5 3.1 2.2-5.8 3-15-4-17.8-9.5-3-19.1 2.3-27.5 6.2-15 8-28.2 19.6-37.7 33.7-.3.7-.5 2.4-.4.7z"/>
  <path fill="#e2530b" d="M136.1 162a33.3 33.3 0 0 1-18-15.4 103 103 0 0 1-10.4-24.7c-.3-.6-.3-1.8-.2-6.4.1-3.1.3-5.8.4-5.9.3-.3 5.9 4.8 8.7 8 5.3 6 9.2 12 13 19.8 3.6 7.3 7.8 17.5 10.4 25.2.2.5-1 .4-3.9-.6zm15.1-62.3a82.3 82.3 0 0 0-27.2-2.3c-5 .2-9.8 2.2-13.9 3.5-1.3.4-2.3-1.4-2.4-1.5l-.3-.8c-.1-.5 0-.8.2-.8l.8-.6c.3-.4.7-.7.8-.7.2 0 0 .3-.2.6-1 1.1 0 .7 2.2-1A90.3 90.3 0 0 1 150.9 79c3.6-.7 9.8-.9 12.2-.5 3.6.6 6.4 2.4 7.7 5.1.5 1.1.6 1.6.5 3.6-.1 2-.3 2.5-1 4a19 19 0 0 1-3 3.8 15 15 0 0 1-10.1 4.7c-2.6.3-3 .3-6 0z"/>
  <path fill="#c01c0b" d="M81 103.5a71 71 0 0 0-14.5 1.2c-5.1 1-10.2 2.1-15.2 3.9-.8.4-2 .6-2.3 1.5 0 1.8-.7 3.5-.7 5.3-.2 3.2.1 6.4 1.7 9.2 2.3 4.2 6.8 6.7 11.5 7.4 1.8.3 3.8.2 5.6.4.2.6 1 .3 1.3-.2a59 59 0 0 1 5-7.3 46.3 46.3 0 0 1 22-16.5c.6-.2 1-.5.8-1.2 0-1 .1-2.2-.6-2.9-1.3-.6-2.9-.5-4.3-.6a118 118 0 0 0-10.3-.2z"/>
  <path fill="#082e33" d="M175.9 35.7c-5.3.3-10.3 2.4-15 4.7A143.5 143.5 0 0 0 107.6 88l-1.2 1.7c-.8-1.4-1.4-3-2.7-4.2 1-.6 2.1-1.3 2.6-2.4.6-1.6.7-3.4 0-4.9-.4-1.2-1.6-1.8-2.2-2.9 1-3.4 2.2-6.7 3.7-10a39 39 0 0 1 6-9.6c.8-.7 1.5-1.8 2.7-1.7 1.3 0 2.8 0 3.8-1 2-1.5 2.4-4.6.8-6.5-1.7-2-4.7-1.7-6.5-.2-2.7 2.1-4.2 5.2-5.7 8.2a78.3 78.3 0 0 0-6 18.5l-.4 1.7-2.9.4c-.7-5-2.4-9.9-4.3-14.5a59 59 0 0 0-6-11.4c-1.5-1.9-3.7-3.6-6.2-3.6-1.8.1-3.3 1.5-3.9 3.1-.8 2.9 1.8 6 4.7 6h2.6c2 2 4 4 5.3 6.6 2.4 4 4.2 8.3 5.8 12.8.2.7.7 1.6.1 2.2-.7 1.2-1.6 2.3-1.5 3.7-.1 1.3.1 2.8 1 3.8.5.7 1.1 1.2 1.8 1.7-.7 1-1.6 2-2 3.3-.5 1.1-.7 2.3-1.1 3.4-1.8-2.2-3.2-4.6-4.9-6.7a154.7 154.7 0 0 0-39.3-36.3c-7-4.5-14.3-8.8-22.3-11-3.2-.7-6.5-.8-9.7-.5-4 .4-7.4 3-9.3 6.4a13.2 13.2 0 0 0-1.8 7.1c-.2 8 2.5 15.6 5.6 22.8 2.8 6.5 6 13 9.6 19.2 2.7 4.5 5.5 9 9.6 12.3 2.2 1.8 4.8 3 7.6 3.4.8 0 0 .4-.2.7a34.5 34.5 0 0 0-12.2 21.2c-.3 2.9-.3 5.8-.2 8.6.3 2.8 1.3 5.5 2.3 8a26.8 26.8 0 0 0 32.7 15c1.5-.6 3-1 4.3-2 1-1.2 1-2.7 1.4-4.1a107 107 0 0 1 7.3-22.2c2-4.4 4.5-8.7 8-12 3.2-3.2 6.7-5.8 10.4-8.2.7-.6.5.6.6 1 .3 5.9 1 11.8 1.6 17.7.6 6 1.9 12 3.1 17.8.5 2 .8 4.1 1.6 6 .3.7 1.2.5 1.3-.1.7-2.7 1-5.5 1.5-8.2a275 275 0 0 0 2.2-16.8l1.1-11.5c.3-3.1.2-6.3.5-9.4a81.3 81.3 0 0 1 18.4 22.4c3.8 7.1 7 14.6 10 22.1l2.9 8.1c.2.5.6.3.9.6 1.1.6 2.5.5 3.8.7 6.5.3 13.3-1 18.7-4.7a27 27 0 0 0 9.6-15.6 39.8 39.8 0 0 0-2.8-23.7 32.4 32.4 0 0 0-12.4-14.2c2.5 0 5.2-.1 7.4-1.4 2.9-1.6 5.1-4 7.2-6.5 4-5.1 7.1-10.9 10-16.6a108 108 0 0 0 8.3-21c1-3.8 1.3-7.9 1-11.8A15 15 0 0 0 183 37c-2.2-1-4.7-1.5-7.1-1.4zm-8.7 20.7c3.2 0 6.7.7 8.7 3.4a9.7 9.7 0 0 1 1.7 6.4 24 24 0 0 1-.8 6.9c-.1.8-.5.5-1 0a17 17 0 0 0-9.7-3.3c-4.6-.3-9.4 0-14 1.2A88 88 0 0 0 109 95.9c-.3.7-1.7 2.2-1.7 3 1 .3 2.5-1.3 3.3-1.7a99.7 99.7 0 0 1 38.1-17.4c4.2-.8 8.4-1 12.7-1 3.4.1 7.3 1.8 8.9 5 .8 1.5.4 3.2.3 4.8-.3 2.4-2 4.2-3.6 6a13.3 13.3 0 0 1-5.2 3.5c-4.8 1.8-10 1.2-15 .4-7-1.4-12.9-3.3-20.3-2.4-8.3 1-23.3 7.3-16.1-2.6a104.2 104.2 0 0 1 49.3-36c2.5-.6 5-1.1 7.5-1.1zM31.8 60c5.7 0 11.1 2 16.2 4.2 9 4 17.5 9.4 25.5 15.3 6.4 4.8 12.7 9.9 18.2 15.7 1 1.2 2 2.4 3.3 3.5.2.8.2 1.7 0 2.5-2.4-.2-4.8-.8-7.3-1.1a87.6 87.6 0 0 0-33 1.5c-2.6.6-5.2 1.2-8 1-3.6-.1-7.5-1-10.7-3a14.5 14.5 0 0 1-7-10c-.4-1.4-.1-3 .6-4.4a7.7 7.7 0 0 1 6.5-4.7c2.8-.2 5.8-.1 8.6.3a136 136 0 0 1 15.9 3.9c6.4 2 12.7 4.4 18.9 7 2 .5 14.3 8.2 16.2 7.8-2.2-4.3-13.2-10.2-17.3-12.7A120.3 120.3 0 0 0 48.8 74a44.2 44.2 0 0 0-17.2-1.5c-2.7.4-5.2 1.7-7.1 3.6-.4.6-.6.3-.7-.3-.7-2.4-1-5-1-7.5 0-1.8-.3-3.7.8-5.2 1.5-2.3 4.4-2.8 6.9-3h1.3zm88.1 42.5a71.9 71.9 0 0 1 22.1 3c.6.7 1.7.8 2.6 1.2 3.2 1.2 6.3 2.6 9.2 4.4a31 31 0 0 1 7.4 7.5 19 19 0 0 1 0 20.3 14.6 14.6 0 0 1-9.3 7c-2 .3-4.4-.3-5.8-2-1.7-1.9-2.3-4.5-3.8-6.7a91 91 0 0 0-23.5-23.6c-3.4-2.7-7-5-10.9-7 0-1 0-2 .3-2.9 1.8-1.3 6.4-1.2 11.7-1.2zm-38.2 2c4.3 0 8.5 0 12.7.6.5 0 .7.3.7.8s.3 1.3-.2 1.5a53.1 53.1 0 0 0-27.2 24.3c-1 .3-1.2 1.4-1.7 2.1-1.5 2.8-2.9 5.8-5.2 8-2 1.6-4.3 2.8-6.8 3.2-2.5.4-5.2 0-7.4-.9a14 14 0 0 1-9.2-10c-.6-2.7-.5-5.6-.2-8.3.4-2 1.1-4 2-6 1.9-3.6 5.2-6.3 8.8-8.1.7-.4 1.4-.8 2-1.4a84.7 84.7 0 0 1 31.4-5.8h.3zm26.2 5c-.2.5 0-.5 0 0z"/>
</svg>
