<svg xmlns="http://www.w3.org/2000/svg" xml:space="preserve" viewBox="0 0 200 200">
  <path fill="#ea9f05" d="M165.7 127.6c-1.7.4-3.8-.1-6.4-1.6l-4-2-2.4-1.2 1.3-.8c3.8-2.1 5.8-6 5.5-10.4a7.4 7.4 0 0 0-1.2-4 12 12 0 0 0-5.3-5.6 26.6 26.6 0 0 0-9-3.9l-2.4-.5 1.4-.4c2-.4 7-.8 9.8-.7a27 27 0 0 1 9.6 2.3 18 18 0 0 1 10 19.6 15.3 15.3 0 0 1-3.1 6.8 10 10 0 0 1-3.8 2.4zM86 173a14.9 14.9 0 0 1-9.7.7c-4-1-6.6-3.3-9-8a17 17 0 0 1-.8-16c1.1-2.5 2.3-4.4 2.5-4.2a25.7 25.7 0 0 0 4.2 8c1.8 2 4 3.3 6.6 4 4 .9 8 .2 12-2.2l2-1c.2 2.2.3 6.4.2 7.8-.3 2.3-.6 3.4-1.6 5.3A12.5 12.5 0 0 1 86 173Zm12-59a164.6 164.6 0 0 0-32-.2 67 67 0 0 0-25 7c-4.2 2.4-6 4.5-7.1 7.9-.6 1.8-.6 1.8-2.8-.6-1.3-1.2-2-2.3-3.3-4.5-1.6-2.8-1.8-3-1.8-4.1-.1-2.4 1.1-4.3 4-6.4 6.2-4.5 19-6.4 35.6-5.4 13.3.8 25.3 2.9 34 6.1 1 .3.4.4-1.5.1zm11.8-6.4a79 79 0 0 1 3-18.4 95.9 95.9 0 0 1 12.7-28.6c5.7-8.6 11.5-14.2 16-15.6 5-1.5 8.3 0 11.1 4.8 1 1.8 2.3 5 2.5 6.3l.1 1-1.3-.3a15.8 15.8 0 0 0-6.7.6c-2.4.7-7.6 3.8-10.4 6a79 79 0 0 0-16.6 20c-2.3 3.8-5.5 10.5-6.6 13.5a86.1 86.1 0 0 0-3.3 11s-.3 0-.5-.3z"/>
  <path fill="#d23a59" d="M44.5 125.7a9 9 0 0 0-3.7 10.3c1.6 3.6 5.2 6.1 9 7 4.3.9 9 .3 13-1.8 2-1.2 4.1-2.6 6-4.2a88.3 88.3 0 0 1 32.3-19.6c.9-.3 1.5-1.3 1-2.2-.8-1.3-2.5-1.8-4-1.7-1.4.3-2.7.1-4 .2-6.9.5-13.6 1.6-20.3 2.7-9.2 1.8-18.6 3.5-27 8zm76.2-20.4-4.8 3.2c-1.3 1-3 2.1-3.4 4-.2 1.4 1 2.5 2.3 3 12.6-.4 25 2.9 36.5 7.5.9.5 2.1.5 2.7-.5l2-1.3a11.4 11.4 0 0 0 2.3-14.7 20 20 0 0 0-11.7-8c-1.8-.6-3.8-1.1-5.7-1.4a70.3 70.3 0 0 0-20.3 8.3z"/>
  <path fill="#aba707" d="M106.8 176c-3.8-12-7.4-24.8-4.8-37.3 1.4-4 2.9-11 6-12.6 4.1 4.7 4.8 11 5.7 17a51.4 51.4 0 0 1-6.6 32.8zm59.3-48c-4.2 1-11-3.8-12.4-4.8 5 2.7 12.8 8 16.8.6 5.8-9.3.2-23-10.3-26-4.7-3-16-.2-17.9-.8 9.7-2.2 22.2-1.2 27.8 8.1 4.8 6.7 4.5 19.3-4 22.9zm-81.8 45.9c-7.3 2.6-15.5-2.1-18.2-9.2a18.6 18.6 0 0 1 2.8-20c-2.9 4.8-5.1 10.3-3.6 16 1.4 6.8 7 13.8 14.7 13.4 7.4.3 14.4-6 14-13.4-.3-3.3-.1-9.6.3-3.1.8 6.2-1.8 13.2-8 15.4l-1 .6zM97 112.7a140.8 140.8 0 0 0-50-4.8c-7.3 1-16.3 2.1-20.5 9-1.7 4.7 3.4 11 7 12.8 2-8.4 11.4-11.2 18.7-13.4 14.2-3.6 29.1-4 43.7-2.5-17.3-.6-35.5-1.3-51.8 5.7-4.7 2-9.4 5.5-10.6 10.9-4-2.1-10.1-9.2-7-14.7 6.1-7.1 16.4-8 25.2-8.6 15.8-.5 32 1 47.2 6 3.4 1.2-.5.3-1.9-.3zm12.6-5.1c-.8-7 1.7-13.9 3.3-20.7a85.5 85.5 0 0 1 22.4-38.8c4.6-4.8 13.8-6.3 17.3.8 1.9 3.3 5.6 10.7-1.5 8-8.7 1-15.7 7.5-21.4 13.8a90.1 90.1 0 0 0-18.8 35.2 81.6 81.6 0 0 1 23-40.1c5.6-5.1 13-10.8 21.1-9-.9-5.6-4.5-13.4-11.5-12.4-9 2-14.3 10.7-19.2 17.8a98 98 0 0 0-14.7 44.7c0 .7.7 2.1 0 .7z"/>
  <path fill="#e2530b" d="M162.9 146.1a31 31 0 0 1-21.7-4 95.8 95.8 0 0 1-19.8-15c-.6-.4-1.1-1.4-3.2-5.1a45.8 45.8 0 0 1-2.4-5c.1-.3 7 1.2 10.7 2.5a78 78 0 0 1 19.7 9.9 214 214 0 0 1 20.1 15.4c.4.3-.6.8-3.4 1.3zM146 89a76.5 76.5 0 0 0-23 10.7c-4 2.5-6.9 6.4-9.6 9.3-.8 1-2.5 0-2.6 0l-.6-.6c-.3-.3-.4-.6-.2-.7l.3-.9.4-.9v.6c-.2 1.3.4.5 1.4-1.8a84 84 0 0 1 24-32.3 44 44 0 0 1 9.6-6c3.2-1.2 6.3-1.1 8.6.5.9.6 1.2 1 2 2.6a7 7 0 0 1 1.1 3.7 17.7 17.7 0 0 1-.6 4.5 14 14 0 0 1-6 8.5c-2 1.4-2.3 1.6-4.8 2.8z"/>
  <path fill="#c01c0b" d="M91.3 124.7a66 66 0 0 0-11.1 7.7 95.6 95.6 0 0 0-10.4 10.2c-.5.7-1.4 1.4-1.2 2.2.8 1.5 1 3.2 2 4.6a15 15 0 0 0 5.6 6.7c3.8 2.3 8.5 2.2 12.7.6 1.5-.6 3.1-1.6 4.7-2.3.4.4.9-.2 1-.8a54.9 54.9 0 0 1 .5-8.2 43 43 0 0 1 10-23.5c.5-.4.7-.9.2-1.3-.5-.8-1-1.9-1.9-2-1.3 0-2.5.9-3.7 1.4a109.7 109.7 0 0 0-8.4 4.7z"/>
  <path fill="#000" d="M136.2 26a37 37 0 0 0-9.9 10.7 133.4 133.4 0 0 0-20.8 63.1l-.2 2c-1.2-.8-2.5-1.8-4-2.2.4-1 1-2 .9-3.1a6 6 0 0 0-2.3-4c-.9-.8-2.1-.7-3.1-1.3a70 70 0 0 1-1.7-9.8 36.3 36.3 0 0 1 .4-10.5c.3-1 .4-2.1 1.4-2.6 1-.6 2.2-1.3 2.6-2.6.9-2.1-.2-4.8-2.4-5.6-2.3-.8-4.6.8-5.3 2.9-1.2 3-1 6.1-.8 9.2A72.8 72.8 0 0 0 94.8 90l.4 1.6-2.1 1.6a56.3 56.3 0 0 0-10.2-9.6A54.9 54.9 0 0 0 72.7 77c-2-.9-4.6-1.2-6.6 0-1.4.9-2 2.7-1.7 4.3.7 2.7 4.2 4 6.6 2.6l2-1.2c2.6.7 5.1 1.4 7.4 2.8 3.8 2.2 7.2 4.8 10.6 7.7.5.4 1.3 1 1.1 1.7 0 1.3-.2 2.6.5 3.7.5 1 1.4 2.2 2.6 2.6.7.3 1.4.4 2.2.5 0 1.1-.3 2.3 0 3.6 0 1 .5 2.2.7 3.2-2.5-1-4.8-2.2-7.1-3a143.9 143.9 0 0 0-48.5-11A77 77 0 0 0 19.4 96c-3 .9-5.6 2.3-8 4a12 12 0 0 0-4.6 9.5 12.3 12.3 0 0 0 1.9 6.6A51 51 0 0 0 23.8 132c5.3 3.9 10.9 7.6 16.7 11 4.2 2.3 8.6 4.6 13.4 5.4 2.6.4 5.3.2 7.7-.8.7-.4.2.3.2.7a32 32 0 0 0 0 22.7c1.1 2.5 2.5 4.8 3.8 7 1.6 2.1 3.6 3.8 5.6 5.4a25 25 0 0 0 33.3-3.1c1-1.2 2-2.2 2.6-3.6.2-1.5-.5-2.7-.8-4a99.5 99.5 0 0 1-4.5-21.3 35 35 0 0 1 .9-13.4c1-4 2.7-7.7 4.6-11.4.2-.8.6.3 1 .5 2.9 4.6 6.2 9 9.4 13.5 3.3 4.6 7.1 8.8 10.8 13 1.3 1.3 2.5 2.9 4 4 .6.5 1.3-.1 1-.7-.6-2.5-1.7-4.9-2.5-7.3a255.7 255.7 0 0 0-6-14.5l-4.5-9.8c-1.2-2.6-2.8-5.1-4-7.8a75.6 75.6 0 0 1 25.2 9.5c6.4 4 12.5 8.5 18.4 13.1l6 5.2c.5.3.7 0 1 0 1.2 0 2.3-.7 3.5-1.1 5.3-2.8 10.2-7 12.8-12.5a25.1 25.1 0 0 0 .5-17 37 37 0 0 0-13.3-17.8 30.1 30.1 0 0 0-16.6-5.7 14 14 0 0 0 5.4-4.5c1.5-2.7 2.2-5.6 2.7-8.6.9-6 .7-12.1.4-18a100.4 100.4 0 0 0-3.1-20.8 34 34 0 0 0-4.7-10 14 14 0 0 0-12.2-5.6c-2.2.2-4.5 1-6.3 2.1zm2.6 20.6c2.6-1.4 5.7-2.5 8.6-1.3a9 9 0 0 1 4.4 4.4 22.3 22.3 0 0 1 2.5 6c.3.6-.1.6-.8.4a15.8 15.8 0 0 0-9.3 1.8 41.2 41.2 0 0 0-10.7 7.5 81.8 81.8 0 0 0-23.2 40.1c.1.7-.3 2.6 0 3.2 1-.2 1.5-2.2 2-2.9a92.7 92.7 0 0 1 22.5-31.7c3-2.6 6.3-4.7 9.8-6.7 2.8-1.5 6.7-2 9.5-.1 1.3.8 1.8 2.4 2.4 3.7 1 2 .4 4.3 0 6.5a12.4 12.4 0 0 1-2.6 5.2 26 26 0 0 1-12 7.3c-6.2 2.2-11.8 3.4-17.4 7.5-6.2 4.7-15.4 16.7-14.2 5.4a96.9 96.9 0 0 1 23-51.9c1.7-1.6 3.5-3.2 5.5-4.4zM31.5 112.5c4.6-2.7 9.8-3.6 15-4.2 9-1 18.4-.5 27.6.5a127.5 127.5 0 0 1 26.3 5.5 5 5 0 0 1 1.1 2c-2 1-4.2 1.6-6.4 2.5a81.5 81.5 0 0 0-25.9 16.5 24.8 24.8 0 0 1-6 4.6 20 20 0 0 1-10 2.5 13.5 13.5 0 0 1-10.2-4.8c-1-1-1.5-2.3-1.6-3.8a7.2 7.2 0 0 1 3-6.8c2.2-1.5 4.7-2.8 7.1-3.8a126.5 126.5 0 0 1 14.6-4.2c6.1-1.4 12.3-2.4 18.5-3.2 1.9-.5 15.3 0 16.7-1.2-3.8-2.4-15.4-2-19.8-2.2a111.9 111.9 0 0 0-29.8 3.5 41.1 41.1 0 0 0-14.6 6.8c-2 1.5-3.4 3.7-4 6.2 0 .6-.4.5-.7 0a25.2 25.2 0 0 1-4.3-5.5c-.9-1.5-2-2.9-1.8-4.6.1-2.5 2.2-4.3 4.2-5.6l1-.6zm90.7-6.7a66.9 66.9 0 0 1 19.2-7.9c.8.3 1.7-.1 2.6-.2a43 43 0 0 1 9.5-.8 28.8 28.8 0 0 1 9.4 2.6 17.7 17.7 0 0 1 9.5 16.4 13.6 13.6 0 0 1-4.3 10 6 6 0 0 1-5.6 1c-2.2-.7-4-2.5-6.2-3.6a84.6 84.6 0 0 0-29.9-8c-4-.7-8-.9-12-.7-.5-.8-1-1.6-1-2.4.8-2 4.5-4 8.8-6.4zM92.3 125c3.5-2 6.9-4 10.5-5.4.4-.2.7 0 1 .3.2.4.8 1 .5 1.3a49.4 49.4 0 0 0-10.6 32.2c-.7.8-.3 1.7-.4 2.5.1 3 .4 6-.5 8.9-.8 2.2-2.1 4.2-4 5.7a13.2 13.2 0 0 1-6.3 2.7 13 13 0 0 1-12-3.7c-1.8-2-3-4.3-4-6.6-.7-1.8-1-3.8-1.3-5.8a19 19 0 0 1 3.3-10.6c.4-.7.8-1.3 1-2a78.8 78.8 0 0 1 22.6-19.3zm23.5-8.1c0 .5-.3-.4 0 0z"/>
</svg>
