<svg xmlns="http://www.w3.org/2000/svg" xmlns:xlink="http://www.w3.org/1999/xlink" xml:space="preserve" viewBox="0 0 200 200">
  <defs>
    <linearGradient xlink:href="#a" id="b" x1="80.4" x2="131.2" y1="168.7" y2="142.7" gradientTransform="translate(-147 -252.3) scale(2.36614)" gradientUnits="userSpaceOnUse"/>
    <linearGradient id="a">
      <stop offset="0" stop-color="#da5c29"/>
      <stop offset="1" stop-color="#ffb91c"/>
    </linearGradient>
  </defs>
  <path fill="url(#b)" d="M47.7 168.3A15 15 0 0 1 39 163a38.5 38.5 0 0 1-8.2-25.5c0-11.5 3.3-17.8 11.6-22.8 2.6-1.5 11.9-5.4 17.5-7.4 1-.3-1-1-6.2-2.2-4.1-1-9.2-2.3-11.2-3a35.5 35.5 0 0 1-19.1-15.7 119.2 119.2 0 0 1-8.7-47.6l.2-7.2 3.5-.2C26 31 37.7 34.9 47 40.9c17.7 11.6 34.5 36.7 42.5 63.5 2.7 9.3 2.7 9.5.1 9.5h-2l1.7 1c2.3 1.2 2.2 3-.5 7.5-5.2 8.4-6.1 10.1-10.7 19.5-7.3 15.2-13.2 23.3-18.6 25.5-2.7 1.2-9 1.6-11.8 1zm94.5-.2c-7.4-2-11-6.5-20.7-26l-10-19.1c-3.3-5.7-3.5-6.8-1.5-8.1l1.3-1h-1.7c-2.3 0-2.2-1 1.4-12.3 4.6-14 10.8-26.3 20.3-40 4.2-6.2 16.3-17.8 22.3-21.5a54.9 54.9 0 0 1 28.3-8.7l3.4.2V41a129 129 0 0 1-5.1 35.3c-4.5 16-13.2 23.7-31.3 28.2a88 88 0 0 1-8.7 1.9c-2 0-.3 1 7.2 4a39.5 39.5 0 0 1 15.4 9.2c3.4 3.5 5.1 7.4 5.9 13.6 1.8 14.6-4.3 30-13.4 34a23 23 0 0 1-13 1zm-44.8-30c-4.1-12.8-4-26.7.4-39.3l1.2-3.5-2.6-6.5c-6-15-13-25.6-16.6-25.6-2 0-2.8-.5-3.7-2.4-1-1.9.4-4.3 2.8-5 1.4-.2 2 0 3.2 1.4.9 1 1.4 2.3 1.2 2.9-.1.7.8 2.6 2.5 4.8a97 97 0 0 1 11.4 21.3 86 86 0 0 0 2.7 6.7c.2.2 1.4-2.5 2.7-5.8a100.6 100.6 0 0 1 14.1-24.9c.3-.2.6-1.3.6-2.5 0-2.3 2.1-4.3 4.2-4 1.6.4 3.5 3.4 3 4.8-.3 1.3-3.5 3-5.3 2.9-2.5-.2-13.3 18.3-16.6 28.1-1.5 4.8-1.5 4.8-.4 8.1a76 76 0 0 1 1.7 32.7c-1.2 5.7-3.3 11.6-4.1 11.6a20 20 0 0 1-2.4-5.8z"/>
</svg>
