<svg xmlns="http://www.w3.org/2000/svg" xmlns:xlink="http://www.w3.org/1999/xlink" xml:space="preserve" viewBox="0 0 200 200">
  <defs>
    <linearGradient xlink:href="#a" id="b" x1="80.4" x2="131.2" y1="168.7" y2="142.7" gradientTransform="rotate(-45 -31 260.2) scale(1.6693)" gradientUnits="userSpaceOnUse"/>
    <linearGradient id="a">
      <stop offset="0" stop-color="#da5c29"/>
      <stop offset="1" stop-color="#ffb91c"/>
    </linearGradient>
  </defs>
  <path fill="url(#b)" d="M113.9 167a10.6 10.6 0 0 1-7 1.6 27.2 27.2 0 0 1-16.7-8.6c-5.8-5.7-7.3-10.5-5.6-17.1.5-2 3.1-8.7 5-12.5.3-.6-1 0-4.2 2a92.9 92.9 0 0 1-7.1 4 25 25 0 0 1-17.4 1.9 84.1 84.1 0 0 1-28-19.5l-3.6-3.7 1.7-1.9a39 39 0 0 1 19-9.4c14.6-3 35.5 1 52.8 10.5 6 3.2 6.1 3.3 4.8 4.7l-1 1 1.4-.4c1.8-.5 2.6.4 3.4 4 1.7 6.8 2 8.1 4.5 15 4 11.3 5 18.2 3.4 22a18 18 0 0 1-5.4 6.4zm47-47.3c-4.7 2.7-8.7 2.3-23.3-2.5-5.8-2-12.4-4-14.5-4.6-4.5-1.2-5.1-1.6-4.8-3.3l.2-1.2-.9.9c-1.2 1.1-1.6.5-5.4-6.8-4.8-9.4-7.8-18.6-9.9-30.1a73 73 0 0 1 .5-21.9 38.4 38.4 0 0 1 9.7-18.4l1.8-1.6 4.6 4.7A91 91 0 0 1 134.1 55c5.7 10.2 5.2 18.4-1.6 29.7a62 62 0 0 1-3.4 5.3c-1 1 .4.6 5.6-1.6 5.8-2.5 8.6-3.2 12.3-3.1 3.5 0 6.2 1.1 9.7 3.9 8.2 6.3 12.8 17 10.2 23.6-1 2.5-3.7 5.7-6 7zm-37.3 7.5a44 44 0 0 1-19.4-19.9l-1.1-2.3-4.6-2c-10.5-4.4-19.2-6.3-21-4.5-1 1-1.7 1.2-3.1.7-1.4-.4-2-2.3-1-3.9.5-.8 1-1 2.2-.9 1 0 1.8.5 2 .8.3.5 1.7 1 3.6 1.2 4.7.7 11.4 2.7 16.4 5l4.7 2c.1 0-.6-2-1.6-4.3s-2.2-5.5-2.7-7a71 71 0 0 1-2.6-12.4c0-.3-.4-1-1-1.6-1.1-1.2-1-3.2.1-4 1-.7 3.5-.2 4 .8.4.8-.3 3.2-1.3 4-1.3 1.2 2.5 15.9 5.8 22.4 1.6 3.1 1.6 3.1 3.8 4.2 5.4 2.7 13.5 10 17.1 15.5 2.3 3.4 4.2 7.5 3.8 7.9-.2.1-2-.6-4.1-1.7z"/>
</svg>
